# MagicaVoxel @ Ephtracy

# group
o 

# material
mtllib treeModel.mtl
usemtl palette

# normals
vn -1 0 0
vn 1 0 0
vn 0 0 1
vn 0 0 -1
vn 0 -1 0
vn 0 1 0

# texcoords
vt 0.943359 0.5
vt 0.986328 0.5

# verts
v -1.6 2.5 1.4
v -1.6 2.5 -1.4
v -1.6 2.9 1.4
v -1.6 2.9 -1.4
v -1.4 2.9 1.2
v -1.4 2.9 -1.2
v -1.4 3.4 1.2
v -1.4 3.4 -1.2
v -1.2 3.4 1
v -1.2 3.4 -1
v -1.2 3.8 1
v -1.2 3.8 -1
v -1 3.8 0.8
v -1 3.8 -0.8
v -1 4.2 0.8
v -1 4.2 -0.8
v -0.8 4.2 0.6
v -0.8 4.2 -0.6
v -0.8 4.5 0.6
v -0.8 4.5 -0.6
v -0.6 4.5 0.4
v -0.6 4.5 -0.4
v -0.6 4.7 0.4
v -0.6 4.7 -0.4
v -0.5 0 0.2
v -0.5 0 -0.2
v -0.5 2.5 0.2
v -0.5 2.5 -0.2
v -0.4 0 0.3
v -0.4 0 0.2
v -0.4 0 -0.2
v -0.4 0 -0.3
v -0.4 2.5 0.3
v -0.4 2.5 0.2
v -0.4 2.5 -0.2
v -0.4 2.5 -0.3
v -0.4 4.7 0.2
v -0.4 4.7 -0.2
v -0.4 4.9 0.2
v -0.4 4.9 -0.2
v -0.3 4.9 0.1
v -0.3 4.9 -0.1
v -0.3 5 0.1
v -0.3 5 -0.1
v -0.1 4.9 0.1
v -0.1 4.9 -0.1
v -0.1 5 0.1
v -0.1 5 -0.1
v -2.38419e-07 0 0.3
v -2.38419e-07 0 0.2
v -2.38419e-07 0 -0.2
v -2.38419e-07 0 -0.3
v -2.38419e-07 2.5 0.3
v -2.38419e-07 2.5 0.2
v -2.38419e-07 2.5 -0.2
v -2.38419e-07 2.5 -0.3
v -2.38419e-07 4.7 0.2
v -2.38419e-07 4.7 -0.2
v -2.38419e-07 4.9 0.2
v -2.38419e-07 4.9 -0.2
v 0.0999998 0 0.2
v 0.0999998 0 -0.2
v 0.0999998 2.5 0.2
v 0.0999998 2.5 -0.2
v 0.2 4.5 0.4
v 0.2 4.5 -0.4
v 0.2 4.7 0.4
v 0.2 4.7 -0.4
v 0.4 4.2 0.6
v 0.4 4.2 -0.6
v 0.4 4.5 0.6
v 0.4 4.5 -0.6
v 0.6 3.8 0.8
v 0.6 3.8 -0.8
v 0.6 4.2 0.8
v 0.6 4.2 -0.8
v 0.8 3.4 1
v 0.8 3.4 -1
v 0.8 3.8 1
v 0.8 3.8 -1
v 1 2.9 1.2
v 1 2.9 -1.2
v 1 3.4 1.2
v 1 3.4 -1.2
v 1.2 2.5 1.4
v 1.2 2.5 -1.4
v 1.2 2.9 1.4
v 1.2 2.9 -1.4
v -1.6 2.5 1.4
v -1.6 2.9 1.4
v 1.2 2.5 1.4
v 1.2 2.9 1.4
v -1.4 2.9 1.2
v -1.4 3.4 1.2
v 1 2.9 1.2
v 1 3.4 1.2
v -1.2 3.4 1
v -1.2 3.8 1
v 0.8 3.4 1
v 0.8 3.8 1
v -1 3.8 0.8
v -1 4.2 0.8
v 0.6 3.8 0.8
v 0.6 4.2 0.8
v -0.8 4.2 0.6
v -0.8 4.5 0.6
v 0.4 4.2 0.6
v 0.4 4.5 0.6
v -0.6 4.5 0.4
v -0.6 4.7 0.4
v 0.2 4.5 0.4
v 0.2 4.7 0.4
v -0.4 0 0.3
v -0.4 2.5 0.3
v -2.38419e-07 0 0.3
v -2.38419e-07 2.5 0.3
v -0.5 0 0.2
v -0.5 2.5 0.2
v -0.4 0 0.2
v -0.4 2.5 0.2
v -0.4 4.7 0.2
v -0.4 4.9 0.2
v -2.38419e-07 0 0.2
v -2.38419e-07 2.5 0.2
v -2.38419e-07 4.7 0.2
v -2.38419e-07 4.9 0.2
v 0.0999998 0 0.2
v 0.0999998 2.5 0.2
v -0.3 4.9 0.1
v -0.3 5 0.1
v -0.1 4.9 0.1
v -0.1 5 0.1
v -0.3 4.9 -0.1
v -0.3 5 -0.1
v -0.1 4.9 -0.1
v -0.1 5 -0.1
v -0.5 0 -0.2
v -0.5 2.5 -0.2
v -0.4 0 -0.2
v -0.4 2.5 -0.2
v -0.4 4.7 -0.2
v -0.4 4.9 -0.2
v -2.38419e-07 0 -0.2
v -2.38419e-07 2.5 -0.2
v -2.38419e-07 4.7 -0.2
v -2.38419e-07 4.9 -0.2
v 0.0999998 0 -0.2
v 0.0999998 2.5 -0.2
v -0.4 0 -0.3
v -0.4 2.5 -0.3
v -2.38419e-07 0 -0.3
v -2.38419e-07 2.5 -0.3
v -0.6 4.5 -0.4
v -0.6 4.7 -0.4
v 0.2 4.5 -0.4
v 0.2 4.7 -0.4
v -0.8 4.2 -0.6
v -0.8 4.5 -0.6
v 0.4 4.2 -0.6
v 0.4 4.5 -0.6
v -1 3.8 -0.8
v -1 4.2 -0.8
v 0.6 3.8 -0.8
v 0.6 4.2 -0.8
v -1.2 3.4 -1
v -1.2 3.8 -1
v 0.8 3.4 -1
v 0.8 3.8 -1
v -1.4 2.9 -1.2
v -1.4 3.4 -1.2
v 1 2.9 -1.2
v 1 3.4 -1.2
v -1.6 2.5 -1.4
v -1.6 2.9 -1.4
v 1.2 2.5 -1.4
v 1.2 2.9 -1.4
v -0.4 0 0.3
v -2.38419e-07 0 0.3
v -0.5 0 0.2
v -0.4 0 0.2
v -2.38419e-07 0 0.2
v 0.0999998 0 0.2
v -0.5 0 -0.2
v -0.4 0 -0.2
v -2.38419e-07 0 -0.2
v 0.0999998 0 -0.2
v -0.4 0 -0.3
v -2.38419e-07 0 -0.3
v -1.6 2.5 1.4
v 1.2 2.5 1.4
v -0.4 2.5 0.3
v -2.38419e-07 2.5 0.3
v -0.5 2.5 0.2
v -0.4 2.5 0.2
v -2.38419e-07 2.5 0.2
v 0.0999998 2.5 0.2
v -0.5 2.5 -0.2
v -0.4 2.5 -0.2
v -2.38419e-07 2.5 -0.2
v 0.0999998 2.5 -0.2
v -0.4 2.5 -0.3
v -2.38419e-07 2.5 -0.3
v -1.6 2.5 -1.4
v 1.2 2.5 -1.4
v -1.6 2.9 1.4
v 1.2 2.9 1.4
v -1.4 2.9 1.2
v 1 2.9 1.2
v -1.4 2.9 -1.2
v 1 2.9 -1.2
v -1.6 2.9 -1.4
v 1.2 2.9 -1.4
v -1.4 3.4 1.2
v 1 3.4 1.2
v -1.2 3.4 1
v 0.8 3.4 1
v -1.2 3.4 -1
v 0.8 3.4 -1
v -1.4 3.4 -1.2
v 1 3.4 -1.2
v -1.2 3.8 1
v 0.8 3.8 1
v -1 3.8 0.8
v 0.6 3.8 0.8
v -1 3.8 -0.8
v 0.6 3.8 -0.8
v -1.2 3.8 -1
v 0.8 3.8 -1
v -1 4.2 0.8
v 0.6 4.2 0.8
v -0.8 4.2 0.6
v 0.4 4.2 0.6
v -0.8 4.2 -0.6
v 0.4 4.2 -0.6
v -1 4.2 -0.8
v 0.6 4.2 -0.8
v -0.8 4.5 0.6
v 0.4 4.5 0.6
v -0.6 4.5 0.4
v 0.2 4.5 0.4
v -0.6 4.5 -0.4
v 0.2 4.5 -0.4
v -0.8 4.5 -0.6
v 0.4 4.5 -0.6
v -0.6 4.7 0.4
v 0.2 4.7 0.4
v -0.4 4.7 0.2
v -2.38419e-07 4.7 0.2
v -0.4 4.7 -0.2
v -2.38419e-07 4.7 -0.2
v -0.6 4.7 -0.4
v 0.2 4.7 -0.4
v -0.4 4.9 0.2
v -2.38419e-07 4.9 0.2
v -0.3 4.9 0.1
v -0.1 4.9 0.1
v -0.3 4.9 -0.1
v -0.1 4.9 -0.1
v -0.4 4.9 -0.2
v -2.38419e-07 4.9 -0.2
v -0.3 5 0.1
v -0.1 5 0.1
v -0.3 5 -0.1
v -0.1 5 -0.1

# faces
f 3/2/1 2/2/1 1/2/1
f 4/2/1 2/2/1 3/2/1
f 7/2/1 6/2/1 5/2/1
f 8/2/1 6/2/1 7/2/1
f 11/2/1 10/2/1 9/2/1
f 12/2/1 10/2/1 11/2/1
f 15/2/1 14/2/1 13/2/1
f 16/2/1 14/2/1 15/2/1
f 19/2/1 18/2/1 17/2/1
f 20/2/1 18/2/1 19/2/1
f 23/2/1 22/2/1 21/2/1
f 24/2/1 22/2/1 23/2/1
f 27/1/1 26/1/1 25/1/1
f 28/1/1 26/1/1 27/1/1
f 33/1/1 30/1/1 29/1/1
f 34/1/1 30/1/1 33/1/1
f 35/1/1 32/1/1 31/1/1
f 36/1/1 32/1/1 35/1/1
f 39/2/1 38/2/1 37/2/1
f 40/2/1 38/2/1 39/2/1
f 43/2/1 42/2/1 41/2/1
f 44/2/1 42/2/1 43/2/1
f 45/2/2 46/2/2 47/2/2
f 47/2/2 46/2/2 48/2/2
f 49/1/2 50/1/2 53/1/2
f 53/1/2 50/1/2 54/1/2
f 51/1/2 52/1/2 55/1/2
f 55/1/2 52/1/2 56/1/2
f 57/2/2 58/2/2 59/2/2
f 59/2/2 58/2/2 60/2/2
f 61/1/2 62/1/2 63/1/2
f 63/1/2 62/1/2 64/1/2
f 65/2/2 66/2/2 67/2/2
f 67/2/2 66/2/2 68/2/2
f 69/2/2 70/2/2 71/2/2
f 71/2/2 70/2/2 72/2/2
f 73/2/2 74/2/2 75/2/2
f 75/2/2 74/2/2 76/2/2
f 77/2/2 78/2/2 79/2/2
f 79/2/2 78/2/2 80/2/2
f 81/2/2 82/2/2 83/2/2
f 83/2/2 82/2/2 84/2/2
f 85/2/2 86/2/2 87/2/2
f 87/2/2 86/2/2 88/2/2
f 91/2/3 90/2/3 89/2/3
f 92/2/3 90/2/3 91/2/3
f 95/2/3 94/2/3 93/2/3
f 96/2/3 94/2/3 95/2/3
f 99/2/3 98/2/3 97/2/3
f 100/2/3 98/2/3 99/2/3
f 103/2/3 102/2/3 101/2/3
f 104/2/3 102/2/3 103/2/3
f 107/2/3 106/2/3 105/2/3
f 108/2/3 106/2/3 107/2/3
f 111/2/3 110/2/3 109/2/3
f 112/2/3 110/2/3 111/2/3
f 115/1/3 114/1/3 113/1/3
f 116/1/3 114/1/3 115/1/3
f 119/1/3 118/1/3 117/1/3
f 120/1/3 118/1/3 119/1/3
f 125/2/3 122/2/3 121/2/3
f 126/2/3 122/2/3 125/2/3
f 127/1/3 124/1/3 123/1/3
f 128/1/3 124/1/3 127/1/3
f 131/2/3 130/2/3 129/2/3
f 132/2/3 130/2/3 131/2/3
f 133/2/4 134/2/4 135/2/4
f 135/2/4 134/2/4 136/2/4
f 137/1/4 138/1/4 139/1/4
f 139/1/4 138/1/4 140/1/4
f 141/2/4 142/2/4 145/2/4
f 145/2/4 142/2/4 146/2/4
f 143/1/4 144/1/4 147/1/4
f 147/1/4 144/1/4 148/1/4
f 149/1/4 150/1/4 151/1/4
f 151/1/4 150/1/4 152/1/4
f 153/2/4 154/2/4 155/2/4
f 155/2/4 154/2/4 156/2/4
f 157/2/4 158/2/4 159/2/4
f 159/2/4 158/2/4 160/2/4
f 161/2/4 162/2/4 163/2/4
f 163/2/4 162/2/4 164/2/4
f 165/2/4 166/2/4 167/2/4
f 167/2/4 166/2/4 168/2/4
f 169/2/4 170/2/4 171/2/4
f 171/2/4 170/2/4 172/2/4
f 173/2/4 174/2/4 175/2/4
f 175/2/4 174/2/4 176/2/4
f 180/1/5 178/1/5 177/1/5
f 181/1/5 178/1/5 180/1/5
f 183/1/5 180/1/5 179/1/5
f 183/1/5 182/1/5 181/1/5
f 183/1/5 181/1/5 180/1/5
f 184/1/5 182/1/5 183/1/5
f 185/1/5 182/1/5 184/1/5
f 186/1/5 182/1/5 185/1/5
f 187/1/5 185/1/5 184/1/5
f 188/1/5 185/1/5 187/1/5
f 191/2/5 190/2/5 189/2/5
f 192/2/5 190/2/5 191/2/5
f 193/2/5 191/2/5 189/2/5
f 194/2/5 191/2/5 193/2/5
f 195/2/5 190/2/5 192/2/5
f 196/2/5 190/2/5 195/2/5
f 197/2/5 193/2/5 189/2/5
f 200/2/5 190/2/5 196/2/5
f 201/2/5 198/2/5 197/2/5
f 202/2/5 200/2/5 199/2/5
f 203/2/5 201/2/5 197/2/5
f 203/2/5 202/2/5 201/2/5
f 203/2/5 197/2/5 189/2/5
f 204/2/5 200/2/5 202/2/5
f 204/2/5 202/2/5 203/2/5
f 204/2/5 190/2/5 200/2/5
f 205/2/6 206/2/6 207/2/6
f 207/2/6 206/2/6 208/2/6
f 205/2/6 207/2/6 209/2/6
f 208/2/6 206/2/6 210/2/6
f 205/2/6 209/2/6 211/2/6
f 209/2/6 210/2/6 211/2/6
f 210/2/6 206/2/6 212/2/6
f 211/2/6 210/2/6 212/2/6
f 213/2/6 214/2/6 215/2/6
f 215/2/6 214/2/6 216/2/6
f 213/2/6 215/2/6 217/2/6
f 216/2/6 214/2/6 218/2/6
f 213/2/6 217/2/6 219/2/6
f 217/2/6 218/2/6 219/2/6
f 218/2/6 214/2/6 220/2/6
f 219/2/6 218/2/6 220/2/6
f 221/2/6 222/2/6 223/2/6
f 223/2/6 222/2/6 224/2/6
f 221/2/6 223/2/6 225/2/6
f 224/2/6 222/2/6 226/2/6
f 221/2/6 225/2/6 227/2/6
f 225/2/6 226/2/6 227/2/6
f 226/2/6 222/2/6 228/2/6
f 227/2/6 226/2/6 228/2/6
f 229/2/6 230/2/6 231/2/6
f 231/2/6 230/2/6 232/2/6
f 229/2/6 231/2/6 233/2/6
f 232/2/6 230/2/6 234/2/6
f 229/2/6 233/2/6 235/2/6
f 233/2/6 234/2/6 235/2/6
f 234/2/6 230/2/6 236/2/6
f 235/2/6 234/2/6 236/2/6
f 237/2/6 238/2/6 239/2/6
f 239/2/6 238/2/6 240/2/6
f 237/2/6 239/2/6 241/2/6
f 240/2/6 238/2/6 242/2/6
f 237/2/6 241/2/6 243/2/6
f 241/2/6 242/2/6 243/2/6
f 242/2/6 238/2/6 244/2/6
f 243/2/6 242/2/6 244/2/6
f 245/2/6 246/2/6 247/2/6
f 247/2/6 246/2/6 248/2/6
f 245/2/6 247/2/6 249/2/6
f 248/2/6 246/2/6 250/2/6
f 245/2/6 249/2/6 251/2/6
f 249/2/6 250/2/6 251/2/6
f 250/2/6 246/2/6 252/2/6
f 251/2/6 250/2/6 252/2/6
f 253/2/6 254/2/6 255/2/6
f 255/2/6 254/2/6 256/2/6
f 253/2/6 255/2/6 257/2/6
f 256/2/6 254/2/6 258/2/6
f 253/2/6 257/2/6 259/2/6
f 257/2/6 258/2/6 259/2/6
f 258/2/6 254/2/6 260/2/6
f 259/2/6 258/2/6 260/2/6
f 261/2/6 262/2/6 263/2/6
f 263/2/6 262/2/6 264/2/6
